<svg xmlns="http://www.w3.org/2000/svg" width="37" height="29"><rect id="backgroundrect" width="100%" height="100%" x="0" y="0" fill="none" stroke="none" class=""/>
	
	
	
<g class="currentLayer"><title>Layer 1</title><g class="" fill="#ffffff" fill-opacity="1"><path style="" d="M18.416146468449483,2.810871825012354 c3.8063972144461697,0 4.257227747070268,0.014542920407229017 5.760580923952963,0.08312665400085409 c1.3898957628107338,0.06343429485020924 2.1446563557742366,0.2956117362154253 2.6470378630714313,0.4908377105537134 a4.416747173638278,4.416747173638278 0 0 1 1.6391059630964788,1.0663865177985619 a4.416747173638278,4.416747173638278 0 0 1 1.0663865177985619,1.6391059630964788 c0.1952259743382882,0.5023249200582555 0.4274600029424443,1.2571421002606977 0.4908377105537134,2.6470378630714313 c0.06858373359362484,1.503240002404818 0.08312665400085409,1.954070535028917 0.08312665400085409,5.760580923952963 s-0.014542920407229017,4.257227747070268 -0.08312665400085409,5.760580923952963 c-0.06343429485020924,1.3898957628107338 -0.29566832345436433,2.1446563557742366 -0.4908377105537134,2.6470378630714313 a4.7209035829334365,4.7209035829334365 0 0 1 -2.7054924808950402,2.7054924808950402 c-0.5023249200582555,0.1952259743382882 -1.2571421002606977,0.4274600029424443 -2.6470378630714313,0.4908377105537134 c-1.5029570662101248,0.06858373359362484 -1.9537875988342235,0.08312665400085409 -5.760580923952963,0.08312665400085409 s-4.257454096026022,-0.014542920407229017 -5.760580923952963,-0.08312665400085409 c-1.3898957628107338,-0.06343429485020924 -2.1446563557742366,-0.29566832345436433 -2.6470378630714313,-0.4908377105537134 a4.416690586399339,4.416690586399339 0 0 1 -1.6391059630964788,-1.0663865177985619 a4.416803760877216,4.416803760877216 0 0 1 -1.0663865177985619,-1.6391059630964788 c-0.1952259743382882,-0.5023249200582555 -0.4274600029424443,-1.2571421002606977 -0.4908377105537134,-2.6470378630714313 c-0.06858373359362484,-1.503183415165879 -0.08312665400085409,-1.954070535028917 -0.08312665400085409,-5.760580923952963 s0.014542920407229017,-4.257227747070268 0.08312665400085409,-5.760580923952963 c0.06343429485020924,-1.3898957628107338 0.2956117362154253,-2.1446563557742366 0.4908377105537134,-2.6470378630714313 A4.416747173638278,4.416747173638278 0 0 1 8.369534892806486,4.451166120126545 a4.416803760877216,4.416803760877216 0 0 1 1.6391059630964788,-1.0663865177985619 c0.5023249200582555,-0.1952259743382882 1.2571421002606977,-0.4274600029424443 2.6470378630714313,-0.4908377105537134 c1.503240002404818,-0.06858373359362484 1.954070535028917,-0.08312665400085409 5.760580923952963,-0.08312665400085409 m0,-2.5685513626635452 c-3.8715857137034764,0 -4.357217398274835,0.01641029929220395 -5.877490159600181,0.08578625423096982 c-1.5173868121394767,0.06926278046088873 -2.553612331583747,0.31021124386159277 -3.4603662483364213,0.6626365679714066 a6.987844962054062,6.987844962054062 0 0 0 -2.524922601441858,1.6442554018398958 A6.987844962054062,6.987844962054062 0 0 0 4.908772533797494,5.159864700594001 C4.556630145882374,6.0666752045856125 4.315681682481669,7.102900724029882 4.246701838215475,8.620287536169357 C4.177042947082016,10.140560297494705 4.160632647789812,10.626191982066063 4.160632647789812,14.497777695769539 S4.177042947082016,18.854995094044373 4.246701838215475,20.375267855369717 c0.06926278046088873,1.5173868121394767 0.31021124386159277,2.553612331583747 0.6626365679714066,3.4603662483364213 a6.987901549293001,6.987901549293001 0 0 0 1.6442554018398958,2.524922601441858 a6.987731787576185,6.987731787576185 0 0 0 2.524922601441858,1.6442554018398958 c0.9068105039916127,0.35242532410981486 1.9430360234358837,0.5933737875105186 3.4603662483364213,0.6626365679714066 c1.5204991102811016,0.06937595493876562 2.005961033135644,0.08578625423096982 5.877490159600181,0.08578625423096982 s4.357217398274835,-0.01641029929220395 5.877490159600181,-0.08578625423096982 c1.5173868121394767,-0.06926278046088873 2.553612331583747,-0.31021124386159277 3.4603662483364213,-0.6626365679714066 a7.289398358358044,7.289398358358044 0 0 0 4.169178003281753,-4.169178003281753 c0.35242532410981486,-0.9068105039916127 0.5933737875105186,-1.9430360234358837 0.6626365679714066,-3.4603662483364213 c0.06937595493876562,-1.5204991102811016 0.08578625423096982,-2.005961033135644 0.08578625423096982,-5.877490159600181 s-0.01641029929220395,-4.357217398274835 -0.08578625423096982,-5.877490159600181 c-0.06926278046088873,-1.5173868121394767 -0.31021124386159277,-2.553612331583747 -0.6626365679714066,-3.4603662483364213 a6.987731787576185,6.987731787576185 0 0 0 -1.6442554018398958,-2.524922601441858 A6.987788374815122,6.987788374815122 0 0 0 27.75405946362502,0.9904037611175531 C26.847248959633408,0.6382613732024326 25.81102344018914,0.39731290980172956 24.293636628049658,0.3283330655355328 C22.773363866724317,0.2586741744020738 22.287732182152958,0.24226387510987096 18.416146468449483,0.24226387510987096 h0 z" id="svg_1" class="" fill="#ffffff" fill-opacity="1"/><path style="" d="M18.416146468449483,7.177369530473124 A7.320408165296416,7.320408165296416 0 1 0 25.7365546337459,14.497777695769539 A7.320408165296416,7.320408165296416 0 0 0 18.416146468449483,7.177369530473124 zm0,12.072208380690345 A4.7518002153939305,4.7518002153939305 0 1 1 23.168003271082352,14.497777695769539 A4.7518568026328705,4.7518568026328705 0 0 1 18.416146468449483,19.24957791116347 z" id="svg_2" class="" fill="#ffffff" fill-opacity="1"/><circle style="" cx="26.025772757984424" cy="6.888152269687339" r="1.71063232421875" id="svg_3" class="" fill="#ffffff" fill-opacity="1"/></g></g></svg>